<mxfile host="app.diagrams.net" modified="2023-04-17T11:19:51.332Z" agent="Mozilla/5.0 (Macintosh; Intel Mac OS X 10_15_7) AppleWebKit/537.36 (KHTML, like Gecko) Chrome/112.0.0.0 Safari/537.36" etag="3pKHlKCnugE7OyRYko9D" version="21.1.8" type="github" pages="2">
  <diagram id="G0SA3NY6tmmEwskVgaKc" name="第 1 页">
    <mxGraphModel dx="2474" dy="1069" grid="0" gridSize="10" guides="1" tooltips="1" connect="1" arrows="1" fold="1" page="0" pageScale="1" pageWidth="1169" pageHeight="827" math="0" shadow="0">
      <root>
        <mxCell id="0" />
        <mxCell id="1" parent="0" />
        <mxCell id="ifflQbynqondYBz9qhf_-14" style="edgeStyle=orthogonalEdgeStyle;rounded=0;orthogonalLoop=1;jettySize=auto;html=1;exitX=0;exitY=0.25;exitDx=0;exitDy=0;entryX=0.5;entryY=1;entryDx=0;entryDy=0;fontSize=20;labelBackgroundColor=none;fontColor=default;" parent="1" source="ifflQbynqondYBz9qhf_-2" target="ifflQbynqondYBz9qhf_-3" edge="1">
          <mxGeometry relative="1" as="geometry" />
        </mxCell>
        <mxCell id="ifflQbynqondYBz9qhf_-17" style="edgeStyle=orthogonalEdgeStyle;rounded=0;orthogonalLoop=1;jettySize=auto;html=1;exitX=0;exitY=0.75;exitDx=0;exitDy=0;entryX=0.5;entryY=0;entryDx=0;entryDy=0;fontSize=14;labelBackgroundColor=none;fontColor=default;" parent="1" source="ifflQbynqondYBz9qhf_-2" target="ifflQbynqondYBz9qhf_-4" edge="1">
          <mxGeometry relative="1" as="geometry" />
        </mxCell>
        <mxCell id="ifflQbynqondYBz9qhf_-31" style="edgeStyle=orthogonalEdgeStyle;rounded=0;orthogonalLoop=1;jettySize=auto;html=1;exitX=0.75;exitY=1;exitDx=0;exitDy=0;entryX=0.75;entryY=0;entryDx=0;entryDy=0;fontSize=20;labelBackgroundColor=none;fontColor=default;" parent="1" source="ifflQbynqondYBz9qhf_-2" target="ifflQbynqondYBz9qhf_-29" edge="1">
          <mxGeometry relative="1" as="geometry" />
        </mxCell>
        <mxCell id="ifflQbynqondYBz9qhf_-42" style="edgeStyle=orthogonalEdgeStyle;rounded=0;orthogonalLoop=1;jettySize=auto;html=1;exitX=0.5;exitY=0;exitDx=0;exitDy=0;entryX=0;entryY=0.5;entryDx=0;entryDy=0;fontSize=14;labelBackgroundColor=none;fontColor=default;" parent="1" source="ifflQbynqondYBz9qhf_-2" target="ifflQbynqondYBz9qhf_-8" edge="1">
          <mxGeometry relative="1" as="geometry" />
        </mxCell>
        <mxCell id="ifflQbynqondYBz9qhf_-53" style="edgeStyle=orthogonalEdgeStyle;rounded=0;orthogonalLoop=1;jettySize=auto;html=1;exitX=1;exitY=0.5;exitDx=0;exitDy=0;entryX=0;entryY=0.75;entryDx=0;entryDy=0;fontSize=14;labelBackgroundColor=none;fontColor=default;" parent="1" source="ifflQbynqondYBz9qhf_-2" target="ifflQbynqondYBz9qhf_-7" edge="1">
          <mxGeometry relative="1" as="geometry" />
        </mxCell>
        <mxCell id="ifflQbynqondYBz9qhf_-55" style="edgeStyle=orthogonalEdgeStyle;rounded=0;orthogonalLoop=1;jettySize=auto;html=1;exitX=1;exitY=0.75;exitDx=0;exitDy=0;entryX=0.25;entryY=0;entryDx=0;entryDy=0;fontSize=14;labelBackgroundColor=none;fontColor=default;" parent="1" source="ifflQbynqondYBz9qhf_-2" target="ifflQbynqondYBz9qhf_-6" edge="1">
          <mxGeometry relative="1" as="geometry" />
        </mxCell>
        <mxCell id="ifflQbynqondYBz9qhf_-59" style="edgeStyle=orthogonalEdgeStyle;rounded=0;orthogonalLoop=1;jettySize=auto;html=1;exitX=1.004;exitY=0.903;exitDx=0;exitDy=0;entryX=0;entryY=0.5;entryDx=0;entryDy=0;fontSize=14;exitPerimeter=0;labelBackgroundColor=none;fontColor=default;" parent="1" source="ifflQbynqondYBz9qhf_-2" target="ifflQbynqondYBz9qhf_-6" edge="1">
          <mxGeometry relative="1" as="geometry" />
        </mxCell>
        <mxCell id="ifflQbynqondYBz9qhf_-2" value="&lt;font style=&quot;font-size: 20px;&quot;&gt;购物车&lt;/font&gt;" style="rounded=1;whiteSpace=wrap;html=1;labelBackgroundColor=none;" parent="1" vertex="1">
          <mxGeometry x="390" y="280" width="240" height="150" as="geometry" />
        </mxCell>
        <mxCell id="ifflQbynqondYBz9qhf_-9" style="edgeStyle=orthogonalEdgeStyle;rounded=0;orthogonalLoop=1;jettySize=auto;html=1;entryX=0.25;entryY=0;entryDx=0;entryDy=0;fontSize=20;labelBackgroundColor=none;fontColor=default;" parent="1" source="ifflQbynqondYBz9qhf_-3" target="ifflQbynqondYBz9qhf_-2" edge="1">
          <mxGeometry relative="1" as="geometry" />
        </mxCell>
        <mxCell id="ifflQbynqondYBz9qhf_-3" value="管理员" style="rounded=0;whiteSpace=wrap;html=1;fontSize=20;labelBackgroundColor=none;" parent="1" vertex="1">
          <mxGeometry x="110" y="130" width="120" height="60" as="geometry" />
        </mxCell>
        <mxCell id="ifflQbynqondYBz9qhf_-20" style="edgeStyle=orthogonalEdgeStyle;rounded=0;orthogonalLoop=1;jettySize=auto;html=1;exitX=1;exitY=0.5;exitDx=0;exitDy=0;entryX=0.25;entryY=1;entryDx=0;entryDy=0;fontSize=14;labelBackgroundColor=none;fontColor=default;" parent="1" source="ifflQbynqondYBz9qhf_-4" target="ifflQbynqondYBz9qhf_-2" edge="1">
          <mxGeometry relative="1" as="geometry" />
        </mxCell>
        <mxCell id="ifflQbynqondYBz9qhf_-4" value="顾客" style="rounded=0;whiteSpace=wrap;html=1;fontSize=20;labelBackgroundColor=none;" parent="1" vertex="1">
          <mxGeometry x="110" y="480" width="120" height="60" as="geometry" />
        </mxCell>
        <mxCell id="ifflQbynqondYBz9qhf_-6" value="物流系统" style="rounded=0;whiteSpace=wrap;html=1;fontSize=20;labelBackgroundColor=none;" parent="1" vertex="1">
          <mxGeometry x="800" y="490" width="120" height="60" as="geometry" />
        </mxCell>
        <mxCell id="ifflQbynqondYBz9qhf_-54" style="edgeStyle=orthogonalEdgeStyle;rounded=0;orthogonalLoop=1;jettySize=auto;html=1;exitX=0;exitY=0.25;exitDx=0;exitDy=0;entryX=1.008;entryY=0.303;entryDx=0;entryDy=0;entryPerimeter=0;fontSize=14;labelBackgroundColor=none;fontColor=default;" parent="1" source="ifflQbynqondYBz9qhf_-7" target="ifflQbynqondYBz9qhf_-2" edge="1">
          <mxGeometry relative="1" as="geometry" />
        </mxCell>
        <mxCell id="ifflQbynqondYBz9qhf_-7" value="第三方服务" style="rounded=0;whiteSpace=wrap;html=1;fontSize=20;labelBackgroundColor=none;" parent="1" vertex="1">
          <mxGeometry x="920" y="310" width="120" height="60" as="geometry" />
        </mxCell>
        <mxCell id="ifflQbynqondYBz9qhf_-46" style="edgeStyle=orthogonalEdgeStyle;rounded=0;orthogonalLoop=1;jettySize=auto;html=1;exitX=0.75;exitY=1;exitDx=0;exitDy=0;entryX=0.75;entryY=0;entryDx=0;entryDy=0;fontSize=14;labelBackgroundColor=none;fontColor=default;" parent="1" source="ifflQbynqondYBz9qhf_-8" target="ifflQbynqondYBz9qhf_-2" edge="1">
          <mxGeometry relative="1" as="geometry" />
        </mxCell>
        <mxCell id="ifflQbynqondYBz9qhf_-8" value="商家" style="rounded=0;whiteSpace=wrap;html=1;fontSize=20;labelBackgroundColor=none;" parent="1" vertex="1">
          <mxGeometry x="910" y="80" width="120" height="60" as="geometry" />
        </mxCell>
        <mxCell id="ifflQbynqondYBz9qhf_-15" value="&lt;font style=&quot;font-size: 14px;&quot;&gt;管理报告选项/商品/商品分类/新顾客信息&lt;/font&gt;" style="text;html=1;align=center;verticalAlign=middle;resizable=0;points=[];autosize=1;strokeColor=none;fillColor=none;fontSize=20;labelBackgroundColor=none;" parent="1" vertex="1">
          <mxGeometry x="230" y="120" width="270" height="40" as="geometry" />
        </mxCell>
        <mxCell id="ifflQbynqondYBz9qhf_-16" value="管理报表/维护结果" style="text;html=1;align=center;verticalAlign=middle;resizable=0;points=[];autosize=1;strokeColor=none;fillColor=none;fontSize=14;labelBackgroundColor=none;" parent="1" vertex="1">
          <mxGeometry x="210" y="290" width="140" height="30" as="geometry" />
        </mxCell>
        <mxCell id="ifflQbynqondYBz9qhf_-18" value="商品信息/订单详情/支付状态" style="text;html=1;align=center;verticalAlign=middle;resizable=0;points=[];autosize=1;strokeColor=none;fillColor=none;fontSize=14;labelBackgroundColor=none;" parent="1" vertex="1">
          <mxGeometry x="170" y="365" width="200" height="30" as="geometry" />
        </mxCell>
        <mxCell id="ifflQbynqondYBz9qhf_-19" value="/顾客订单物流信息" style="text;html=1;align=center;verticalAlign=middle;resizable=0;points=[];autosize=1;strokeColor=none;fillColor=none;fontSize=14;labelBackgroundColor=none;" parent="1" vertex="1">
          <mxGeometry x="170" y="395" width="140" height="30" as="geometry" />
        </mxCell>
        <mxCell id="ifflQbynqondYBz9qhf_-21" value="提交订单请求/商品标识&lt;br&gt;/支付请求/支付密码" style="text;html=1;align=center;verticalAlign=middle;resizable=0;points=[];autosize=1;strokeColor=none;fillColor=none;fontSize=14;labelBackgroundColor=none;" parent="1" vertex="1">
          <mxGeometry x="230" y="460" width="170" height="50" as="geometry" />
        </mxCell>
        <mxCell id="ifflQbynqondYBz9qhf_-22" value="/顾客订单物流查询请求&lt;br&gt;/浏览购物车请求" style="text;html=1;align=center;verticalAlign=middle;resizable=0;points=[];autosize=1;strokeColor=none;fillColor=none;fontSize=14;labelBackgroundColor=none;" parent="1" vertex="1">
          <mxGeometry x="230" y="510" width="170" height="50" as="geometry" />
        </mxCell>
        <mxCell id="ifflQbynqondYBz9qhf_-30" style="edgeStyle=orthogonalEdgeStyle;rounded=0;orthogonalLoop=1;jettySize=auto;html=1;exitX=0.25;exitY=0;exitDx=0;exitDy=0;entryX=0.5;entryY=1;entryDx=0;entryDy=0;fontSize=20;labelBackgroundColor=none;fontColor=default;" parent="1" source="ifflQbynqondYBz9qhf_-29" target="ifflQbynqondYBz9qhf_-2" edge="1">
          <mxGeometry relative="1" as="geometry" />
        </mxCell>
        <mxCell id="ifflQbynqondYBz9qhf_-29" value="&lt;font style=&quot;font-size: 20px;&quot;&gt;支付系统&lt;/font&gt;" style="rounded=0;whiteSpace=wrap;html=1;fontSize=14;labelBackgroundColor=none;" parent="1" vertex="1">
          <mxGeometry x="480" y="540" width="120" height="60" as="geometry" />
        </mxCell>
        <mxCell id="ifflQbynqondYBz9qhf_-38" value="转账请求" style="text;html=1;align=center;verticalAlign=middle;resizable=0;points=[];autosize=1;strokeColor=none;fillColor=none;fontSize=14;labelBackgroundColor=none;" parent="1" vertex="1">
          <mxGeometry x="530" y="480" width="80" height="30" as="geometry" />
        </mxCell>
        <mxCell id="ifflQbynqondYBz9qhf_-39" value="转账结果" style="text;html=1;align=center;verticalAlign=middle;resizable=0;points=[];autosize=1;strokeColor=none;fillColor=none;fontSize=14;labelBackgroundColor=none;" parent="1" vertex="1">
          <mxGeometry x="470" y="480" width="80" height="30" as="geometry" />
        </mxCell>
        <mxCell id="ifflQbynqondYBz9qhf_-43" value="商家报表/商家订单物流信息" style="text;html=1;align=center;verticalAlign=middle;resizable=0;points=[];autosize=1;strokeColor=none;fillColor=none;fontSize=14;labelBackgroundColor=none;" parent="1" vertex="1">
          <mxGeometry x="630" y="80" width="200" height="30" as="geometry" />
        </mxCell>
        <mxCell id="ifflQbynqondYBz9qhf_-44" value="/商家订单信息" style="text;html=1;align=center;verticalAlign=middle;resizable=0;points=[];autosize=1;strokeColor=none;fillColor=none;fontSize=14;labelBackgroundColor=none;" parent="1" vertex="1">
          <mxGeometry x="630" y="110" width="110" height="30" as="geometry" />
        </mxCell>
        <mxCell id="ifflQbynqondYBz9qhf_-47" value="商家订单物流标识/商家订单物流查询请求" style="text;html=1;align=center;verticalAlign=middle;resizable=0;points=[];autosize=1;strokeColor=none;fillColor=none;fontSize=14;labelBackgroundColor=none;" parent="1" vertex="1">
          <mxGeometry x="670" y="180" width="280" height="30" as="geometry" />
        </mxCell>
        <mxCell id="ifflQbynqondYBz9qhf_-48" value="/订单新价格/商家报表选项" style="text;html=1;align=center;verticalAlign=middle;resizable=0;points=[];autosize=1;strokeColor=none;fillColor=none;fontSize=14;labelBackgroundColor=none;" parent="1" vertex="1">
          <mxGeometry x="670" y="210" width="190" height="30" as="geometry" />
        </mxCell>
        <mxCell id="ifflQbynqondYBz9qhf_-56" value="报表" style="text;html=1;align=center;verticalAlign=middle;resizable=0;points=[];autosize=1;strokeColor=none;fillColor=none;fontSize=14;labelBackgroundColor=none;" parent="1" vertex="1">
          <mxGeometry x="715" y="295" width="50" height="30" as="geometry" />
        </mxCell>
        <mxCell id="ifflQbynqondYBz9qhf_-57" value="报表数据" style="text;html=1;align=center;verticalAlign=middle;resizable=0;points=[];autosize=1;strokeColor=none;fillColor=none;fontSize=14;labelBackgroundColor=none;" parent="1" vertex="1">
          <mxGeometry x="700" y="325" width="80" height="30" as="geometry" />
        </mxCell>
        <mxCell id="ifflQbynqondYBz9qhf_-58" value="物流信息" style="text;html=1;align=center;verticalAlign=middle;resizable=0;points=[];autosize=1;strokeColor=none;fillColor=none;fontSize=14;labelBackgroundColor=none;" parent="1" vertex="1">
          <mxGeometry x="740" y="395" width="80" height="30" as="geometry" />
        </mxCell>
        <mxCell id="ifflQbynqondYBz9qhf_-60" value="运单号" style="text;html=1;align=center;verticalAlign=middle;resizable=0;points=[];autosize=1;strokeColor=none;fillColor=none;fontSize=14;labelBackgroundColor=none;" parent="1" vertex="1">
          <mxGeometry x="715" y="470" width="70" height="30" as="geometry" />
        </mxCell>
        <mxCell id="k6yhSpRdPhZUqzyF10QF-9" style="edgeStyle=orthogonalEdgeStyle;rounded=0;orthogonalLoop=1;jettySize=auto;html=1;exitX=1;exitY=0.5;exitDx=0;exitDy=0;entryX=0;entryY=0;entryDx=0;entryDy=0;labelBackgroundColor=none;fontColor=default;" parent="1" source="k6yhSpRdPhZUqzyF10QF-1" target="k6yhSpRdPhZUqzyF10QF-3" edge="1">
          <mxGeometry relative="1" as="geometry" />
        </mxCell>
        <mxCell id="k6yhSpRdPhZUqzyF10QF-14" style="edgeStyle=orthogonalEdgeStyle;rounded=0;orthogonalLoop=1;jettySize=auto;html=1;exitX=0.5;exitY=1;exitDx=0;exitDy=0;entryX=0;entryY=0.25;entryDx=0;entryDy=0;labelBackgroundColor=none;fontColor=default;" parent="1" source="k6yhSpRdPhZUqzyF10QF-1" target="k6yhSpRdPhZUqzyF10QF-13" edge="1">
          <mxGeometry relative="1" as="geometry" />
        </mxCell>
        <mxCell id="k6yhSpRdPhZUqzyF10QF-1" value="&lt;font style=&quot;font-size: 20px;&quot;&gt;管理员&lt;/font&gt;" style="rounded=0;whiteSpace=wrap;html=1;labelBackgroundColor=none;" parent="1" vertex="1">
          <mxGeometry x="126.5" y="881" width="120" height="60" as="geometry" />
        </mxCell>
        <mxCell id="k6yhSpRdPhZUqzyF10QF-5" style="edgeStyle=orthogonalEdgeStyle;rounded=0;orthogonalLoop=1;jettySize=auto;html=1;exitX=0.75;exitY=1;exitDx=0;exitDy=0;entryX=0.75;entryY=0;entryDx=0;entryDy=0;labelBackgroundColor=none;fontColor=default;" parent="1" source="k6yhSpRdPhZUqzyF10QF-2" target="k6yhSpRdPhZUqzyF10QF-3" edge="1">
          <mxGeometry relative="1" as="geometry" />
        </mxCell>
        <mxCell id="k6yhSpRdPhZUqzyF10QF-2" value="&lt;font style=&quot;font-size: 20px;&quot;&gt;第三方服务&lt;/font&gt;" style="rounded=0;whiteSpace=wrap;html=1;labelBackgroundColor=none;" parent="1" vertex="1">
          <mxGeometry x="546.5" y="831" width="120" height="60" as="geometry" />
        </mxCell>
        <mxCell id="k6yhSpRdPhZUqzyF10QF-4" style="edgeStyle=orthogonalEdgeStyle;rounded=0;orthogonalLoop=1;jettySize=auto;html=1;exitX=0.25;exitY=0;exitDx=0;exitDy=0;entryX=0.25;entryY=1;entryDx=0;entryDy=0;labelBackgroundColor=none;fontColor=default;" parent="1" source="k6yhSpRdPhZUqzyF10QF-3" target="k6yhSpRdPhZUqzyF10QF-2" edge="1">
          <mxGeometry relative="1" as="geometry" />
        </mxCell>
        <mxCell id="k6yhSpRdPhZUqzyF10QF-11" style="edgeStyle=orthogonalEdgeStyle;rounded=0;orthogonalLoop=1;jettySize=auto;html=1;exitX=0;exitY=0.25;exitDx=0;exitDy=0;entryX=0.75;entryY=1;entryDx=0;entryDy=0;labelBackgroundColor=none;fontColor=default;" parent="1" source="k6yhSpRdPhZUqzyF10QF-3" target="k6yhSpRdPhZUqzyF10QF-1" edge="1">
          <mxGeometry relative="1" as="geometry" />
        </mxCell>
        <mxCell id="k6yhSpRdPhZUqzyF10QF-23" style="edgeStyle=orthogonalEdgeStyle;rounded=0;orthogonalLoop=1;jettySize=auto;html=1;exitX=1;exitY=0.75;exitDx=0;exitDy=0;entryX=0;entryY=0.75;entryDx=0;entryDy=0;labelBackgroundColor=none;fontColor=default;" parent="1" source="k6yhSpRdPhZUqzyF10QF-3" target="k6yhSpRdPhZUqzyF10QF-19" edge="1">
          <mxGeometry relative="1" as="geometry" />
        </mxCell>
        <mxCell id="k6yhSpRdPhZUqzyF10QF-3" value="&lt;font style=&quot;font-size: 20px;&quot;&gt;生成报表&lt;/font&gt;" style="rounded=1;whiteSpace=wrap;html=1;labelBackgroundColor=none;" parent="1" vertex="1">
          <mxGeometry x="546.5" y="991" width="120" height="60" as="geometry" />
        </mxCell>
        <mxCell id="k6yhSpRdPhZUqzyF10QF-6" value="&lt;font style=&quot;font-size: 14px;&quot;&gt;报表数据&lt;/font&gt;" style="text;html=1;align=center;verticalAlign=middle;resizable=0;points=[];autosize=1;strokeColor=none;fillColor=none;labelBackgroundColor=none;" parent="1" vertex="1">
          <mxGeometry x="536.5" y="931" width="80" height="30" as="geometry" />
        </mxCell>
        <mxCell id="k6yhSpRdPhZUqzyF10QF-8" value="&lt;font style=&quot;font-size: 14px;&quot;&gt;报表&lt;/font&gt;" style="text;html=1;align=center;verticalAlign=middle;resizable=0;points=[];autosize=1;strokeColor=none;fillColor=none;labelBackgroundColor=none;" parent="1" vertex="1">
          <mxGeometry x="636.5" y="931" width="50" height="30" as="geometry" />
        </mxCell>
        <mxCell id="k6yhSpRdPhZUqzyF10QF-10" value="&lt;font style=&quot;font-size: 14px;&quot;&gt;管理报表选项&lt;/font&gt;" style="text;html=1;align=center;verticalAlign=middle;resizable=0;points=[];autosize=1;strokeColor=none;fillColor=none;labelBackgroundColor=none;" parent="1" vertex="1">
          <mxGeometry x="316.5" y="881" width="110" height="30" as="geometry" />
        </mxCell>
        <mxCell id="k6yhSpRdPhZUqzyF10QF-12" value="&lt;font style=&quot;font-size: 14px;&quot;&gt;管理报表&lt;/font&gt;" style="text;html=1;align=center;verticalAlign=middle;resizable=0;points=[];autosize=1;strokeColor=none;fillColor=none;labelBackgroundColor=none;" parent="1" vertex="1">
          <mxGeometry x="331.5" y="976" width="80" height="30" as="geometry" />
        </mxCell>
        <mxCell id="k6yhSpRdPhZUqzyF10QF-16" style="edgeStyle=orthogonalEdgeStyle;rounded=0;orthogonalLoop=1;jettySize=auto;html=1;exitX=0;exitY=0.75;exitDx=0;exitDy=0;entryX=0;entryY=0.5;entryDx=0;entryDy=0;labelBackgroundColor=none;fontColor=default;" parent="1" source="k6yhSpRdPhZUqzyF10QF-13" target="k6yhSpRdPhZUqzyF10QF-1" edge="1">
          <mxGeometry relative="1" as="geometry" />
        </mxCell>
        <mxCell id="k6yhSpRdPhZUqzyF10QF-33" style="edgeStyle=orthogonalEdgeStyle;rounded=0;orthogonalLoop=1;jettySize=auto;html=1;exitX=0.5;exitY=0;exitDx=0;exitDy=0;entryX=0.5;entryY=1;entryDx=0;entryDy=0;startArrow=classic;startFill=1;labelBackgroundColor=none;fontColor=default;" parent="1" source="k6yhSpRdPhZUqzyF10QF-13" target="TVt8pjtPUyir7gBCAIFA-16" edge="1">
          <mxGeometry relative="1" as="geometry">
            <mxPoint x="376.5" y="1081" as="targetPoint" />
          </mxGeometry>
        </mxCell>
        <mxCell id="TVt8pjtPUyir7gBCAIFA-20" style="edgeStyle=orthogonalEdgeStyle;rounded=0;orthogonalLoop=1;jettySize=auto;html=1;exitX=0.75;exitY=0;exitDx=0;exitDy=0;entryX=0;entryY=0.5;entryDx=0;entryDy=0;startArrow=classic;startFill=1;" parent="1" source="k6yhSpRdPhZUqzyF10QF-13" target="TVt8pjtPUyir7gBCAIFA-19" edge="1">
          <mxGeometry relative="1" as="geometry">
            <Array as="points">
              <mxPoint x="407" y="1115" />
            </Array>
          </mxGeometry>
        </mxCell>
        <mxCell id="TVt8pjtPUyir7gBCAIFA-23" style="edgeStyle=orthogonalEdgeStyle;rounded=0;orthogonalLoop=1;jettySize=auto;html=1;exitX=1;exitY=0.75;exitDx=0;exitDy=0;entryX=0;entryY=0.25;entryDx=0;entryDy=0;" parent="1" source="k6yhSpRdPhZUqzyF10QF-13" target="TVt8pjtPUyir7gBCAIFA-21" edge="1">
          <mxGeometry relative="1" as="geometry" />
        </mxCell>
        <mxCell id="k6yhSpRdPhZUqzyF10QF-13" value="&lt;font style=&quot;font-size: 20px;&quot;&gt;维护信息&lt;/font&gt;" style="rounded=1;whiteSpace=wrap;html=1;labelBackgroundColor=none;" parent="1" vertex="1">
          <mxGeometry x="316.5" y="1162" width="120" height="60" as="geometry" />
        </mxCell>
        <mxCell id="k6yhSpRdPhZUqzyF10QF-15" value="&lt;font style=&quot;font-size: 14px;&quot;&gt;商品/商品分类&lt;br&gt;/新顾客信息&lt;/font&gt;" style="text;html=1;align=center;verticalAlign=middle;resizable=0;points=[];autosize=1;strokeColor=none;fillColor=none;labelBackgroundColor=none;" parent="1" vertex="1">
          <mxGeometry x="186.5" y="1061" width="110" height="50" as="geometry" />
        </mxCell>
        <mxCell id="k6yhSpRdPhZUqzyF10QF-18" value="&lt;span style=&quot;font-size: 14px;&quot;&gt;维护结果&lt;/span&gt;" style="text;html=1;align=center;verticalAlign=middle;resizable=0;points=[];autosize=1;strokeColor=none;fillColor=none;labelBackgroundColor=none;" parent="1" vertex="1">
          <mxGeometry x="106.5" y="1071" width="80" height="30" as="geometry" />
        </mxCell>
        <mxCell id="k6yhSpRdPhZUqzyF10QF-20" style="edgeStyle=orthogonalEdgeStyle;rounded=0;orthogonalLoop=1;jettySize=auto;html=1;exitX=0;exitY=0.25;exitDx=0;exitDy=0;entryX=1;entryY=0.25;entryDx=0;entryDy=0;labelBackgroundColor=none;fontColor=default;" parent="1" source="k6yhSpRdPhZUqzyF10QF-19" target="k6yhSpRdPhZUqzyF10QF-3" edge="1">
          <mxGeometry relative="1" as="geometry" />
        </mxCell>
        <mxCell id="k6yhSpRdPhZUqzyF10QF-27" style="edgeStyle=orthogonalEdgeStyle;rounded=0;orthogonalLoop=1;jettySize=auto;html=1;exitX=0.25;exitY=1;exitDx=0;exitDy=0;entryX=0.25;entryY=0;entryDx=0;entryDy=0;labelBackgroundColor=none;fontColor=default;" parent="1" source="k6yhSpRdPhZUqzyF10QF-19" target="k6yhSpRdPhZUqzyF10QF-26" edge="1">
          <mxGeometry relative="1" as="geometry" />
        </mxCell>
        <mxCell id="k6yhSpRdPhZUqzyF10QF-19" value="&lt;font style=&quot;font-size: 20px;&quot;&gt;商家&lt;/font&gt;" style="rounded=0;whiteSpace=wrap;html=1;labelBackgroundColor=none;" parent="1" vertex="1">
          <mxGeometry x="843" y="991" width="120" height="60" as="geometry" />
        </mxCell>
        <mxCell id="k6yhSpRdPhZUqzyF10QF-21" value="&lt;font style=&quot;font-size: 14px;&quot;&gt;商家报表选项&lt;/font&gt;" style="text;html=1;align=center;verticalAlign=middle;resizable=0;points=[];autosize=1;strokeColor=none;fillColor=none;labelBackgroundColor=none;" parent="1" vertex="1">
          <mxGeometry x="689" y="976" width="110" height="30" as="geometry" />
        </mxCell>
        <mxCell id="k6yhSpRdPhZUqzyF10QF-24" value="&lt;font style=&quot;font-size: 14px;&quot;&gt;商家报表&lt;/font&gt;" style="text;html=1;align=center;verticalAlign=middle;resizable=0;points=[];autosize=1;strokeColor=none;fillColor=none;labelBackgroundColor=none;" parent="1" vertex="1">
          <mxGeometry x="701" y="1006" width="80" height="30" as="geometry" />
        </mxCell>
        <mxCell id="k6yhSpRdPhZUqzyF10QF-28" style="edgeStyle=orthogonalEdgeStyle;rounded=0;orthogonalLoop=1;jettySize=auto;html=1;exitX=0.75;exitY=0;exitDx=0;exitDy=0;entryX=0.75;entryY=1;entryDx=0;entryDy=0;labelBackgroundColor=none;fontColor=default;" parent="1" source="k6yhSpRdPhZUqzyF10QF-26" target="k6yhSpRdPhZUqzyF10QF-19" edge="1">
          <mxGeometry relative="1" as="geometry" />
        </mxCell>
        <mxCell id="k6yhSpRdPhZUqzyF10QF-26" value="&lt;font style=&quot;font-size: 20px;&quot;&gt;改变价格&lt;/font&gt;" style="rounded=1;whiteSpace=wrap;html=1;labelBackgroundColor=none;" parent="1" vertex="1">
          <mxGeometry x="843" y="1162" width="120" height="60" as="geometry" />
        </mxCell>
        <mxCell id="k6yhSpRdPhZUqzyF10QF-29" value="&lt;font style=&quot;font-size: 14px;&quot;&gt;订单新价格&lt;/font&gt;" style="text;html=1;align=center;verticalAlign=middle;resizable=0;points=[];autosize=1;strokeColor=none;fillColor=none;labelBackgroundColor=none;" parent="1" vertex="1">
          <mxGeometry x="783" y="1096" width="90" height="30" as="geometry" />
        </mxCell>
        <mxCell id="k6yhSpRdPhZUqzyF10QF-30" value="&lt;font style=&quot;font-size: 14px;&quot;&gt;商家订单信息&lt;/font&gt;" style="text;html=1;align=center;verticalAlign=middle;resizable=0;points=[];autosize=1;strokeColor=none;fillColor=none;labelBackgroundColor=none;" parent="1" vertex="1">
          <mxGeometry x="923" y="1096" width="110" height="30" as="geometry" />
        </mxCell>
        <mxCell id="k6yhSpRdPhZUqzyF10QF-44" style="edgeStyle=orthogonalEdgeStyle;rounded=0;orthogonalLoop=1;jettySize=auto;html=1;exitX=0.25;exitY=1;exitDx=0;exitDy=0;entryX=0;entryY=0.5;entryDx=0;entryDy=0;labelBackgroundColor=none;fontColor=default;" parent="1" source="k6yhSpRdPhZUqzyF10QF-41" target="k6yhSpRdPhZUqzyF10QF-43" edge="1">
          <mxGeometry relative="1" as="geometry" />
        </mxCell>
        <mxCell id="TVt8pjtPUyir7gBCAIFA-36" style="edgeStyle=orthogonalEdgeStyle;rounded=0;orthogonalLoop=1;jettySize=auto;html=1;exitX=1;exitY=0.5;exitDx=0;exitDy=0;entryX=0.75;entryY=1;entryDx=0;entryDy=0;" parent="1" source="k6yhSpRdPhZUqzyF10QF-41" target="k6yhSpRdPhZUqzyF10QF-13" edge="1">
          <mxGeometry relative="1" as="geometry" />
        </mxCell>
        <mxCell id="k6yhSpRdPhZUqzyF10QF-41" value="&lt;font style=&quot;font-size: 20px;&quot;&gt;浏览购物车&lt;/font&gt;" style="rounded=1;whiteSpace=wrap;html=1;labelBackgroundColor=none;" parent="1" vertex="1">
          <mxGeometry x="107" y="1355" width="120" height="60" as="geometry" />
        </mxCell>
        <mxCell id="k6yhSpRdPhZUqzyF10QF-46" style="edgeStyle=orthogonalEdgeStyle;rounded=0;orthogonalLoop=1;jettySize=auto;html=1;exitX=0.25;exitY=0;exitDx=0;exitDy=0;entryX=0.75;entryY=1;entryDx=0;entryDy=0;labelBackgroundColor=none;fontColor=default;" parent="1" source="k6yhSpRdPhZUqzyF10QF-43" target="k6yhSpRdPhZUqzyF10QF-41" edge="1">
          <mxGeometry relative="1" as="geometry" />
        </mxCell>
        <mxCell id="k6yhSpRdPhZUqzyF10QF-51" style="edgeStyle=orthogonalEdgeStyle;rounded=0;orthogonalLoop=1;jettySize=auto;html=1;exitX=0.75;exitY=0;exitDx=0;exitDy=0;entryX=0.5;entryY=1;entryDx=0;entryDy=0;labelBackgroundColor=none;fontColor=default;" parent="1" source="k6yhSpRdPhZUqzyF10QF-43" target="k6yhSpRdPhZUqzyF10QF-49" edge="1">
          <mxGeometry relative="1" as="geometry" />
        </mxCell>
        <mxCell id="k6yhSpRdPhZUqzyF10QF-57" style="edgeStyle=orthogonalEdgeStyle;rounded=0;orthogonalLoop=1;jettySize=auto;html=1;exitX=1;exitY=0.75;exitDx=0;exitDy=0;entryX=0.5;entryY=1;entryDx=0;entryDy=0;labelBackgroundColor=none;fontColor=default;" parent="1" source="k6yhSpRdPhZUqzyF10QF-43" target="k6yhSpRdPhZUqzyF10QF-54" edge="1">
          <mxGeometry relative="1" as="geometry" />
        </mxCell>
        <mxCell id="k6yhSpRdPhZUqzyF10QF-91" style="edgeStyle=orthogonalEdgeStyle;rounded=0;orthogonalLoop=1;jettySize=auto;html=1;exitX=0.75;exitY=1;exitDx=0;exitDy=0;entryX=0.75;entryY=0;entryDx=0;entryDy=0;labelBackgroundColor=none;fontColor=default;" parent="1" source="k6yhSpRdPhZUqzyF10QF-43" target="k6yhSpRdPhZUqzyF10QF-90" edge="1">
          <mxGeometry relative="1" as="geometry" />
        </mxCell>
        <mxCell id="k6yhSpRdPhZUqzyF10QF-43" value="&lt;font style=&quot;&quot;&gt;&lt;font style=&quot;font-size: 20px;&quot;&gt;顾客&lt;/font&gt;&lt;br&gt;&lt;/font&gt;" style="rounded=0;whiteSpace=wrap;html=1;labelBackgroundColor=none;" parent="1" vertex="1">
          <mxGeometry x="167" y="1515" width="120" height="60" as="geometry" />
        </mxCell>
        <mxCell id="k6yhSpRdPhZUqzyF10QF-45" value="&lt;span style=&quot;font-size: 14px;&quot;&gt;商品信息&lt;/span&gt;" style="text;html=1;align=center;verticalAlign=middle;resizable=0;points=[];autosize=1;strokeColor=none;fillColor=none;labelBackgroundColor=none;" parent="1" vertex="1">
          <mxGeometry x="67" y="1445" width="80" height="30" as="geometry" />
        </mxCell>
        <mxCell id="k6yhSpRdPhZUqzyF10QF-48" value="&lt;span style=&quot;font-size: 14px;&quot;&gt;浏览购物&lt;br&gt;车请求&lt;/span&gt;" style="text;html=1;align=center;verticalAlign=middle;resizable=0;points=[];autosize=1;strokeColor=none;fillColor=none;labelBackgroundColor=none;" parent="1" vertex="1">
          <mxGeometry x="184.5" y="1445" width="80" height="50" as="geometry" />
        </mxCell>
        <mxCell id="TVt8pjtPUyir7gBCAIFA-27" style="edgeStyle=orthogonalEdgeStyle;rounded=0;orthogonalLoop=1;jettySize=auto;html=1;exitX=0.5;exitY=0;exitDx=0;exitDy=0;entryX=1;entryY=0.75;entryDx=0;entryDy=0;" parent="1" source="k6yhSpRdPhZUqzyF10QF-49" target="TVt8pjtPUyir7gBCAIFA-25" edge="1">
          <mxGeometry relative="1" as="geometry" />
        </mxCell>
        <mxCell id="k6yhSpRdPhZUqzyF10QF-49" value="&lt;font style=&quot;font-size: 20px;&quot;&gt;加入购物车&lt;/font&gt;" style="rounded=1;whiteSpace=wrap;html=1;labelBackgroundColor=none;" parent="1" vertex="1">
          <mxGeometry x="244.5" y="1304" width="120" height="60" as="geometry" />
        </mxCell>
        <mxCell id="k6yhSpRdPhZUqzyF10QF-53" value="&lt;span style=&quot;font-size: 14px;&quot;&gt;商品标识&lt;/span&gt;" style="text;html=1;align=center;verticalAlign=middle;resizable=0;points=[];autosize=1;strokeColor=none;fillColor=none;labelBackgroundColor=none;" parent="1" vertex="1">
          <mxGeometry x="293.5" y="1396" width="80" height="30" as="geometry" />
        </mxCell>
        <mxCell id="k6yhSpRdPhZUqzyF10QF-56" style="edgeStyle=orthogonalEdgeStyle;rounded=0;orthogonalLoop=1;jettySize=auto;html=1;exitX=0.25;exitY=1;exitDx=0;exitDy=0;entryX=1;entryY=0.25;entryDx=0;entryDy=0;labelBackgroundColor=none;fontColor=default;" parent="1" source="k6yhSpRdPhZUqzyF10QF-54" target="k6yhSpRdPhZUqzyF10QF-43" edge="1">
          <mxGeometry relative="1" as="geometry" />
        </mxCell>
        <mxCell id="k6yhSpRdPhZUqzyF10QF-72" style="edgeStyle=orthogonalEdgeStyle;rounded=0;orthogonalLoop=1;jettySize=auto;html=1;exitX=0.75;exitY=0;exitDx=0;exitDy=0;entryX=0.25;entryY=1;entryDx=0;entryDy=0;startArrow=classic;startFill=1;labelBackgroundColor=none;fontColor=default;" parent="1" source="k6yhSpRdPhZUqzyF10QF-54" target="TVt8pjtPUyir7gBCAIFA-33" edge="1">
          <mxGeometry relative="1" as="geometry">
            <mxPoint x="492.55999999999995" y="1420.48" as="targetPoint" />
          </mxGeometry>
        </mxCell>
        <mxCell id="TVt8pjtPUyir7gBCAIFA-28" style="edgeStyle=orthogonalEdgeStyle;rounded=0;orthogonalLoop=1;jettySize=auto;html=1;exitX=0.25;exitY=0;exitDx=0;exitDy=0;entryX=1;entryY=0.25;entryDx=0;entryDy=0;startArrow=classic;startFill=1;" parent="1" source="k6yhSpRdPhZUqzyF10QF-54" target="TVt8pjtPUyir7gBCAIFA-25" edge="1">
          <mxGeometry relative="1" as="geometry" />
        </mxCell>
        <mxCell id="k6yhSpRdPhZUqzyF10QF-54" value="&lt;font style=&quot;font-size: 20px;&quot;&gt;提交订单&lt;/font&gt;" style="rounded=1;whiteSpace=wrap;html=1;labelBackgroundColor=none;" parent="1" vertex="1">
          <mxGeometry x="402.5" y="1447" width="120" height="60" as="geometry" />
        </mxCell>
        <mxCell id="k6yhSpRdPhZUqzyF10QF-58" value="&lt;span style=&quot;font-size: 14px;&quot;&gt;订单详情&lt;/span&gt;" style="text;html=1;align=center;verticalAlign=middle;resizable=0;points=[];autosize=1;strokeColor=none;fillColor=none;labelBackgroundColor=none;" parent="1" vertex="1">
          <mxGeometry x="317" y="1505" width="80" height="30" as="geometry" />
        </mxCell>
        <mxCell id="k6yhSpRdPhZUqzyF10QF-59" value="&lt;span style=&quot;font-size: 14px;&quot;&gt;提交订单请求&lt;/span&gt;" style="text;html=1;align=center;verticalAlign=middle;resizable=0;points=[];autosize=1;strokeColor=none;fillColor=none;labelBackgroundColor=none;" parent="1" vertex="1">
          <mxGeometry x="305.5" y="1562" width="110" height="30" as="geometry" />
        </mxCell>
        <mxCell id="k6yhSpRdPhZUqzyF10QF-71" style="edgeStyle=orthogonalEdgeStyle;rounded=0;orthogonalLoop=1;jettySize=auto;html=1;exitX=0.75;exitY=1;exitDx=0;exitDy=0;entryX=0;entryY=0.25;entryDx=0;entryDy=0;startArrow=classic;startFill=1;labelBackgroundColor=none;fontColor=default;" parent="1" source="TVt8pjtPUyir7gBCAIFA-33" target="k6yhSpRdPhZUqzyF10QF-70" edge="1">
          <mxGeometry relative="1" as="geometry">
            <mxPoint x="597.5" y="1417" as="sourcePoint" />
          </mxGeometry>
        </mxCell>
        <mxCell id="k6yhSpRdPhZUqzyF10QF-77" style="edgeStyle=orthogonalEdgeStyle;rounded=0;orthogonalLoop=1;jettySize=auto;html=1;exitX=1;exitY=0.25;exitDx=0;exitDy=0;entryX=0.5;entryY=1;entryDx=0;entryDy=0;labelBackgroundColor=none;fontColor=default;" parent="1" source="k6yhSpRdPhZUqzyF10QF-70" target="k6yhSpRdPhZUqzyF10QF-73" edge="1">
          <mxGeometry relative="1" as="geometry" />
        </mxCell>
        <mxCell id="k6yhSpRdPhZUqzyF10QF-80" style="edgeStyle=orthogonalEdgeStyle;rounded=0;orthogonalLoop=1;jettySize=auto;html=1;exitX=1;exitY=0.75;exitDx=0;exitDy=0;entryX=0.5;entryY=0;entryDx=0;entryDy=0;labelBackgroundColor=none;fontColor=default;" parent="1" source="k6yhSpRdPhZUqzyF10QF-70" target="k6yhSpRdPhZUqzyF10QF-79" edge="1">
          <mxGeometry relative="1" as="geometry" />
        </mxCell>
        <mxCell id="k6yhSpRdPhZUqzyF10QF-85" style="edgeStyle=orthogonalEdgeStyle;rounded=0;orthogonalLoop=1;jettySize=auto;html=1;exitX=0;exitY=0.75;exitDx=0;exitDy=0;entryX=0.5;entryY=0;entryDx=0;entryDy=0;labelBackgroundColor=none;fontColor=default;" parent="1" source="k6yhSpRdPhZUqzyF10QF-70" target="k6yhSpRdPhZUqzyF10QF-84" edge="1">
          <mxGeometry relative="1" as="geometry" />
        </mxCell>
        <mxCell id="k6yhSpRdPhZUqzyF10QF-70" value="&lt;font style=&quot;font-size: 20px;&quot;&gt;物流跟踪&lt;/font&gt;" style="rounded=1;whiteSpace=wrap;html=1;labelBackgroundColor=none;" parent="1" vertex="1">
          <mxGeometry x="730" y="1482" width="120" height="60" as="geometry" />
        </mxCell>
        <mxCell id="k6yhSpRdPhZUqzyF10QF-74" style="edgeStyle=orthogonalEdgeStyle;rounded=0;orthogonalLoop=1;jettySize=auto;html=1;exitX=0;exitY=0.5;exitDx=0;exitDy=0;entryX=0.5;entryY=0;entryDx=0;entryDy=0;labelBackgroundColor=none;fontColor=default;" parent="1" source="k6yhSpRdPhZUqzyF10QF-73" target="k6yhSpRdPhZUqzyF10QF-70" edge="1">
          <mxGeometry relative="1" as="geometry" />
        </mxCell>
        <mxCell id="k6yhSpRdPhZUqzyF10QF-73" value="&lt;font style=&quot;&quot;&gt;&lt;font style=&quot;font-size: 20px;&quot;&gt;商家&lt;/font&gt;&lt;br&gt;&lt;/font&gt;" style="rounded=0;whiteSpace=wrap;html=1;labelBackgroundColor=none;" parent="1" vertex="1">
          <mxGeometry x="982.5" y="1407" width="120" height="60" as="geometry" />
        </mxCell>
        <mxCell id="k6yhSpRdPhZUqzyF10QF-75" value="&lt;span style=&quot;font-size: 14px;&quot;&gt;商家订单物流查询请求&lt;/span&gt;" style="text;html=1;align=center;verticalAlign=middle;resizable=0;points=[];autosize=1;strokeColor=none;fillColor=none;labelBackgroundColor=none;" parent="1" vertex="1">
          <mxGeometry x="800" y="1407" width="160" height="30" as="geometry" />
        </mxCell>
        <mxCell id="k6yhSpRdPhZUqzyF10QF-76" value="&lt;span style=&quot;font-size: 14px;&quot;&gt;/商家订单物流标识&lt;/span&gt;" style="text;html=1;align=center;verticalAlign=middle;resizable=0;points=[];autosize=1;strokeColor=none;fillColor=none;labelBackgroundColor=none;" parent="1" vertex="1">
          <mxGeometry x="810" y="1437" width="140" height="30" as="geometry" />
        </mxCell>
        <mxCell id="k6yhSpRdPhZUqzyF10QF-78" value="&lt;span style=&quot;font-size: 14px;&quot;&gt;商家订单物流信息&lt;/span&gt;" style="text;html=1;align=center;verticalAlign=middle;resizable=0;points=[];autosize=1;strokeColor=none;fillColor=none;labelBackgroundColor=none;" parent="1" vertex="1">
          <mxGeometry x="852.5" y="1467" width="140" height="30" as="geometry" />
        </mxCell>
        <mxCell id="k6yhSpRdPhZUqzyF10QF-82" style="edgeStyle=orthogonalEdgeStyle;rounded=0;orthogonalLoop=1;jettySize=auto;html=1;exitX=0;exitY=0.5;exitDx=0;exitDy=0;entryX=0.75;entryY=1;entryDx=0;entryDy=0;labelBackgroundColor=none;fontColor=default;" parent="1" source="k6yhSpRdPhZUqzyF10QF-79" target="k6yhSpRdPhZUqzyF10QF-70" edge="1">
          <mxGeometry relative="1" as="geometry" />
        </mxCell>
        <mxCell id="k6yhSpRdPhZUqzyF10QF-79" value="&lt;font style=&quot;&quot;&gt;&lt;font style=&quot;font-size: 20px;&quot;&gt;物流系统&lt;/font&gt;&lt;br&gt;&lt;/font&gt;" style="rounded=0;whiteSpace=wrap;html=1;labelBackgroundColor=none;" parent="1" vertex="1">
          <mxGeometry x="982.5" y="1638" width="120" height="60" as="geometry" />
        </mxCell>
        <mxCell id="k6yhSpRdPhZUqzyF10QF-81" value="&lt;span style=&quot;font-size: 14px;&quot;&gt;运单号&lt;/span&gt;" style="text;html=1;align=center;verticalAlign=middle;resizable=0;points=[];autosize=1;strokeColor=none;fillColor=none;labelBackgroundColor=none;" parent="1" vertex="1">
          <mxGeometry x="887.5" y="1527" width="70" height="30" as="geometry" />
        </mxCell>
        <mxCell id="k6yhSpRdPhZUqzyF10QF-83" value="&lt;span style=&quot;font-size: 14px;&quot;&gt;物流信息&lt;/span&gt;" style="text;html=1;align=center;verticalAlign=middle;resizable=0;points=[];autosize=1;strokeColor=none;fillColor=none;labelBackgroundColor=none;" parent="1" vertex="1">
          <mxGeometry x="857.5" y="1638" width="80" height="30" as="geometry" />
        </mxCell>
        <mxCell id="k6yhSpRdPhZUqzyF10QF-87" style="edgeStyle=orthogonalEdgeStyle;rounded=0;orthogonalLoop=1;jettySize=auto;html=1;exitX=1;exitY=0.5;exitDx=0;exitDy=0;entryX=0.5;entryY=1;entryDx=0;entryDy=0;labelBackgroundColor=none;fontColor=default;" parent="1" source="k6yhSpRdPhZUqzyF10QF-84" target="k6yhSpRdPhZUqzyF10QF-70" edge="1">
          <mxGeometry relative="1" as="geometry" />
        </mxCell>
        <mxCell id="k6yhSpRdPhZUqzyF10QF-84" value="&lt;span style=&quot;font-size: 20px;&quot;&gt;顾客&lt;/span&gt;" style="rounded=0;whiteSpace=wrap;html=1;labelBackgroundColor=none;" parent="1" vertex="1">
          <mxGeometry x="607.5" y="1698" width="120" height="60" as="geometry" />
        </mxCell>
        <mxCell id="k6yhSpRdPhZUqzyF10QF-86" value="&lt;span style=&quot;font-size: 14px;&quot;&gt;顾客订单物流信息&lt;/span&gt;" style="text;html=1;align=center;verticalAlign=middle;resizable=0;points=[];autosize=1;strokeColor=none;fillColor=none;labelBackgroundColor=none;" parent="1" vertex="1">
          <mxGeometry x="572.5" y="1577" width="140" height="30" as="geometry" />
        </mxCell>
        <mxCell id="k6yhSpRdPhZUqzyF10QF-88" value="&lt;span style=&quot;font-size: 14px;&quot;&gt;订单物流查询请求&lt;/span&gt;" style="text;html=1;align=center;verticalAlign=middle;resizable=0;points=[];autosize=1;strokeColor=none;fillColor=none;labelBackgroundColor=none;" parent="1" vertex="1">
          <mxGeometry x="735" y="1728" width="140" height="30" as="geometry" />
        </mxCell>
        <mxCell id="k6yhSpRdPhZUqzyF10QF-98" style="edgeStyle=orthogonalEdgeStyle;rounded=0;orthogonalLoop=1;jettySize=auto;html=1;exitX=1;exitY=0.75;exitDx=0;exitDy=0;entryX=0;entryY=0.75;entryDx=0;entryDy=0;labelBackgroundColor=none;fontColor=default;" parent="1" source="k6yhSpRdPhZUqzyF10QF-89" target="k6yhSpRdPhZUqzyF10QF-90" edge="1">
          <mxGeometry relative="1" as="geometry" />
        </mxCell>
        <mxCell id="k6yhSpRdPhZUqzyF10QF-89" value="&lt;font style=&quot;&quot;&gt;&lt;font style=&quot;font-size: 20px;&quot;&gt;支付系统&lt;/font&gt;&lt;br&gt;&lt;/font&gt;" style="rounded=0;whiteSpace=wrap;html=1;labelBackgroundColor=none;" parent="1" vertex="1">
          <mxGeometry x="-53" y="1665" width="120" height="60" as="geometry" />
        </mxCell>
        <mxCell id="k6yhSpRdPhZUqzyF10QF-92" style="edgeStyle=orthogonalEdgeStyle;rounded=0;orthogonalLoop=1;jettySize=auto;html=1;exitX=0.25;exitY=0;exitDx=0;exitDy=0;entryX=0.25;entryY=1;entryDx=0;entryDy=0;labelBackgroundColor=none;fontColor=default;" parent="1" source="k6yhSpRdPhZUqzyF10QF-90" target="k6yhSpRdPhZUqzyF10QF-43" edge="1">
          <mxGeometry relative="1" as="geometry" />
        </mxCell>
        <mxCell id="k6yhSpRdPhZUqzyF10QF-96" style="edgeStyle=orthogonalEdgeStyle;rounded=0;orthogonalLoop=1;jettySize=auto;html=1;exitX=0;exitY=0.25;exitDx=0;exitDy=0;entryX=1;entryY=0.25;entryDx=0;entryDy=0;labelBackgroundColor=none;fontColor=default;" parent="1" source="k6yhSpRdPhZUqzyF10QF-90" target="k6yhSpRdPhZUqzyF10QF-89" edge="1">
          <mxGeometry relative="1" as="geometry" />
        </mxCell>
        <mxCell id="k6yhSpRdPhZUqzyF10QF-100" style="edgeStyle=orthogonalEdgeStyle;rounded=0;orthogonalLoop=1;jettySize=auto;html=1;exitX=1;exitY=0.5;exitDx=0;exitDy=0;entryX=0.5;entryY=1;entryDx=0;entryDy=0;startArrow=classic;startFill=1;labelBackgroundColor=none;fontColor=default;" parent="1" source="k6yhSpRdPhZUqzyF10QF-90" target="TVt8pjtPUyir7gBCAIFA-33" edge="1">
          <mxGeometry relative="1" as="geometry">
            <mxPoint x="552.5" y="1417" as="targetPoint" />
          </mxGeometry>
        </mxCell>
        <mxCell id="TVt8pjtPUyir7gBCAIFA-39" style="edgeStyle=orthogonalEdgeStyle;rounded=0;orthogonalLoop=1;jettySize=auto;html=1;exitX=0.5;exitY=1;exitDx=0;exitDy=0;entryX=0;entryY=0.5;entryDx=0;entryDy=0;" parent="1" source="k6yhSpRdPhZUqzyF10QF-90" target="TVt8pjtPUyir7gBCAIFA-25" edge="1">
          <mxGeometry relative="1" as="geometry">
            <mxPoint x="-72" y="1392" as="targetPoint" />
            <Array as="points">
              <mxPoint x="227" y="1745" />
              <mxPoint x="-73" y="1745" />
              <mxPoint x="-73" y="1271" />
            </Array>
          </mxGeometry>
        </mxCell>
        <mxCell id="k6yhSpRdPhZUqzyF10QF-90" value="&lt;font style=&quot;font-size: 20px;&quot;&gt;付款&lt;/font&gt;" style="rounded=1;whiteSpace=wrap;html=1;labelBackgroundColor=none;" parent="1" vertex="1">
          <mxGeometry x="167" y="1665" width="120" height="60" as="geometry" />
        </mxCell>
        <mxCell id="k6yhSpRdPhZUqzyF10QF-93" value="&lt;span style=&quot;font-size: 14px;&quot;&gt;支付状态&lt;/span&gt;" style="text;html=1;align=center;verticalAlign=middle;resizable=0;points=[];autosize=1;strokeColor=none;fillColor=none;labelBackgroundColor=none;" parent="1" vertex="1">
          <mxGeometry x="144.5" y="1615" width="80" height="30" as="geometry" />
        </mxCell>
        <mxCell id="k6yhSpRdPhZUqzyF10QF-95" value="&lt;span style=&quot;font-size: 14px;&quot;&gt;支付请求/支付密码&lt;/span&gt;" style="text;html=1;align=center;verticalAlign=middle;resizable=0;points=[];autosize=1;strokeColor=none;fillColor=none;labelBackgroundColor=none;" parent="1" vertex="1">
          <mxGeometry x="254.5" y="1619" width="140" height="30" as="geometry" />
        </mxCell>
        <mxCell id="k6yhSpRdPhZUqzyF10QF-97" value="&lt;span style=&quot;font-size: 14px;&quot;&gt;转账请求&lt;/span&gt;" style="text;html=1;align=center;verticalAlign=middle;resizable=0;points=[];autosize=1;strokeColor=none;fillColor=none;labelBackgroundColor=none;" parent="1" vertex="1">
          <mxGeometry x="74.5" y="1649" width="80" height="30" as="geometry" />
        </mxCell>
        <mxCell id="k6yhSpRdPhZUqzyF10QF-99" value="&lt;span style=&quot;font-size: 14px;&quot;&gt;转账结果&lt;/span&gt;" style="text;html=1;align=center;verticalAlign=middle;resizable=0;points=[];autosize=1;strokeColor=none;fillColor=none;labelBackgroundColor=none;" parent="1" vertex="1">
          <mxGeometry x="74.5" y="1715" width="80" height="30" as="geometry" />
        </mxCell>
        <mxCell id="TVt8pjtPUyir7gBCAIFA-17" style="edgeStyle=orthogonalEdgeStyle;rounded=0;orthogonalLoop=1;jettySize=auto;html=1;exitX=1;exitY=0.5;exitDx=0;exitDy=0;entryX=0;entryY=0.75;entryDx=0;entryDy=0;" parent="1" source="TVt8pjtPUyir7gBCAIFA-16" target="k6yhSpRdPhZUqzyF10QF-3" edge="1">
          <mxGeometry relative="1" as="geometry" />
        </mxCell>
        <mxCell id="TVt8pjtPUyir7gBCAIFA-16" value="&lt;font style=&quot;font-size: 20px;&quot;&gt;商品分类表&lt;/font&gt;" style="html=1;dashed=0;whiteSpace=wrap;shape=partialRectangle;right=0;" parent="1" vertex="1">
          <mxGeometry x="318.5" y="1014" width="115.5" height="43" as="geometry" />
        </mxCell>
        <mxCell id="TVt8pjtPUyir7gBCAIFA-41" style="edgeStyle=orthogonalEdgeStyle;rounded=0;orthogonalLoop=1;jettySize=auto;html=1;exitX=1;exitY=0.5;exitDx=0;exitDy=0;entryX=1;entryY=0.25;entryDx=0;entryDy=0;" parent="1" source="TVt8pjtPUyir7gBCAIFA-19" target="k6yhSpRdPhZUqzyF10QF-90" edge="1">
          <mxGeometry relative="1" as="geometry">
            <Array as="points">
              <mxPoint x="697" y="1115" />
              <mxPoint x="697" y="1680" />
            </Array>
          </mxGeometry>
        </mxCell>
        <mxCell id="TVt8pjtPUyir7gBCAIFA-19" value="&lt;font style=&quot;font-size: 20px;&quot;&gt;顾客表&lt;/font&gt;" style="html=1;dashed=0;whiteSpace=wrap;shape=partialRectangle;right=0;" parent="1" vertex="1">
          <mxGeometry x="446.5" y="1093" width="115.5" height="43" as="geometry" />
        </mxCell>
        <mxCell id="TVt8pjtPUyir7gBCAIFA-22" style="edgeStyle=orthogonalEdgeStyle;rounded=0;orthogonalLoop=1;jettySize=auto;html=1;exitX=0.5;exitY=0;exitDx=0;exitDy=0;entryX=0.5;entryY=1;entryDx=0;entryDy=0;" parent="1" source="TVt8pjtPUyir7gBCAIFA-21" target="k6yhSpRdPhZUqzyF10QF-3" edge="1">
          <mxGeometry relative="1" as="geometry" />
        </mxCell>
        <mxCell id="TVt8pjtPUyir7gBCAIFA-24" style="edgeStyle=orthogonalEdgeStyle;rounded=0;orthogonalLoop=1;jettySize=auto;html=1;exitX=0.5;exitY=1;exitDx=0;exitDy=0;entryX=1;entryY=0.5;entryDx=0;entryDy=0;" parent="1" source="TVt8pjtPUyir7gBCAIFA-21" target="k6yhSpRdPhZUqzyF10QF-49" edge="1">
          <mxGeometry relative="1" as="geometry" />
        </mxCell>
        <mxCell id="TVt8pjtPUyir7gBCAIFA-21" value="&lt;font style=&quot;font-size: 20px;&quot;&gt;商品表&lt;/font&gt;" style="html=1;dashed=0;whiteSpace=wrap;shape=partialRectangle;right=0;" parent="1" vertex="1">
          <mxGeometry x="548.75" y="1196" width="115.5" height="43" as="geometry" />
        </mxCell>
        <mxCell id="TVt8pjtPUyir7gBCAIFA-26" style="edgeStyle=orthogonalEdgeStyle;rounded=0;orthogonalLoop=1;jettySize=auto;html=1;exitX=0.5;exitY=1;exitDx=0;exitDy=0;entryX=0.5;entryY=0;entryDx=0;entryDy=0;" parent="1" source="TVt8pjtPUyir7gBCAIFA-25" target="k6yhSpRdPhZUqzyF10QF-41" edge="1">
          <mxGeometry relative="1" as="geometry" />
        </mxCell>
        <mxCell id="TVt8pjtPUyir7gBCAIFA-25" value="&lt;font style=&quot;font-size: 20px;&quot;&gt;购物车表&lt;/font&gt;" style="html=1;dashed=0;whiteSpace=wrap;shape=partialRectangle;right=0;" parent="1" vertex="1">
          <mxGeometry x="109" y="1249" width="115.5" height="43" as="geometry" />
        </mxCell>
        <mxCell id="TVt8pjtPUyir7gBCAIFA-34" style="edgeStyle=orthogonalEdgeStyle;rounded=0;orthogonalLoop=1;jettySize=auto;html=1;exitX=1;exitY=0.5;exitDx=0;exitDy=0;entryX=0.5;entryY=1;entryDx=0;entryDy=0;" parent="1" source="TVt8pjtPUyir7gBCAIFA-33" target="k6yhSpRdPhZUqzyF10QF-26" edge="1">
          <mxGeometry relative="1" as="geometry" />
        </mxCell>
        <mxCell id="TVt8pjtPUyir7gBCAIFA-42" style="edgeStyle=orthogonalEdgeStyle;rounded=0;orthogonalLoop=1;jettySize=auto;html=1;exitX=1;exitY=0.25;exitDx=0;exitDy=0;entryX=0.75;entryY=1;entryDx=0;entryDy=0;" parent="1" source="TVt8pjtPUyir7gBCAIFA-33" target="k6yhSpRdPhZUqzyF10QF-3" edge="1">
          <mxGeometry relative="1" as="geometry">
            <Array as="points">
              <mxPoint x="679" y="1364" />
              <mxPoint x="679" y="1081" />
              <mxPoint x="637" y="1081" />
            </Array>
          </mxGeometry>
        </mxCell>
        <mxCell id="TVt8pjtPUyir7gBCAIFA-33" value="&lt;font style=&quot;font-size: 20px;&quot;&gt;订单表&lt;/font&gt;" style="html=1;dashed=0;whiteSpace=wrap;shape=partialRectangle;right=0;" parent="1" vertex="1">
          <mxGeometry x="449" y="1353" width="173.5" height="43" as="geometry" />
        </mxCell>
        <mxCell id="TVt8pjtPUyir7gBCAIFA-37" value="&lt;font style=&quot;font-size: 20px;&quot;&gt;顶层数据流图&lt;/font&gt;" style="text;html=1;align=center;verticalAlign=middle;resizable=0;points=[];autosize=1;strokeColor=none;fillColor=none;fontSize=14;labelBackgroundColor=none;" parent="1" vertex="1">
          <mxGeometry x="471" y="622" width="138" height="36" as="geometry" />
        </mxCell>
        <mxCell id="TVt8pjtPUyir7gBCAIFA-38" value="&lt;font style=&quot;font-size: 20px;&quot;&gt;0层数据流图&lt;/font&gt;" style="text;html=1;align=center;verticalAlign=middle;resizable=0;points=[];autosize=1;strokeColor=none;fillColor=none;" parent="1" vertex="1">
          <mxGeometry x="507.5" y="1761" width="129" height="36" as="geometry" />
        </mxCell>
      </root>
    </mxGraphModel>
  </diagram>
  <diagram id="zSh_yK98_VZN1aGwiTiF" name="第 2 页">
    <mxGraphModel dx="2474" dy="1469" grid="0" gridSize="10" guides="1" tooltips="1" connect="1" arrows="1" fold="1" page="0" pageScale="1" pageWidth="827" pageHeight="1169" math="0" shadow="0">
      <root>
        <mxCell id="0" />
        <mxCell id="1" parent="0" />
        <mxCell id="PJ_M52OKQND_QnQv1E5I-3" value="" style="edgeStyle=none;curved=1;rounded=0;orthogonalLoop=1;jettySize=auto;html=1;fontSize=12;startSize=8;endSize=8;endArrow=none;endFill=0;" edge="1" parent="1" source="PJ_M52OKQND_QnQv1E5I-1" target="PJ_M52OKQND_QnQv1E5I-2">
          <mxGeometry relative="1" as="geometry" />
        </mxCell>
        <mxCell id="PJ_M52OKQND_QnQv1E5I-11" style="edgeStyle=orthogonalEdgeStyle;rounded=0;orthogonalLoop=1;jettySize=auto;html=1;exitX=0.5;exitY=1;exitDx=0;exitDy=0;entryX=0.5;entryY=0;entryDx=0;entryDy=0;endArrow=none;endFill=0;" edge="1" parent="1" source="PJ_M52OKQND_QnQv1E5I-1" target="PJ_M52OKQND_QnQv1E5I-7">
          <mxGeometry relative="1" as="geometry" />
        </mxCell>
        <mxCell id="PJ_M52OKQND_QnQv1E5I-13" style="edgeStyle=orthogonalEdgeStyle;rounded=0;orthogonalLoop=1;jettySize=auto;html=1;exitX=0.5;exitY=1;exitDx=0;exitDy=0;endArrow=none;endFill=0;" edge="1" parent="1" source="PJ_M52OKQND_QnQv1E5I-1" target="PJ_M52OKQND_QnQv1E5I-12">
          <mxGeometry relative="1" as="geometry" />
        </mxCell>
        <mxCell id="PJ_M52OKQND_QnQv1E5I-1" value="&lt;font style=&quot;font-size: 20px;&quot;&gt;电子商务系统&lt;/font&gt;" style="rounded=0;whiteSpace=wrap;html=1;fontSize=16;" vertex="1" parent="1">
          <mxGeometry x="246" y="-2" width="130" height="40" as="geometry" />
        </mxCell>
        <mxCell id="PJ_M52OKQND_QnQv1E5I-34" style="edgeStyle=orthogonalEdgeStyle;rounded=0;orthogonalLoop=1;jettySize=auto;html=1;exitX=0.5;exitY=1;exitDx=0;exitDy=0;entryX=0;entryY=0.5;entryDx=0;entryDy=0;endArrow=none;endFill=0;" edge="1" parent="1" source="PJ_M52OKQND_QnQv1E5I-2" target="PJ_M52OKQND_QnQv1E5I-28">
          <mxGeometry relative="1" as="geometry" />
        </mxCell>
        <mxCell id="PJ_M52OKQND_QnQv1E5I-35" style="edgeStyle=orthogonalEdgeStyle;rounded=0;orthogonalLoop=1;jettySize=auto;html=1;exitX=0.5;exitY=1;exitDx=0;exitDy=0;entryX=0;entryY=0.5;entryDx=0;entryDy=0;endArrow=none;endFill=0;" edge="1" parent="1" source="PJ_M52OKQND_QnQv1E5I-2" target="PJ_M52OKQND_QnQv1E5I-29">
          <mxGeometry relative="1" as="geometry" />
        </mxCell>
        <mxCell id="PJ_M52OKQND_QnQv1E5I-36" style="edgeStyle=orthogonalEdgeStyle;rounded=0;orthogonalLoop=1;jettySize=auto;html=1;exitX=0.5;exitY=1;exitDx=0;exitDy=0;entryX=0;entryY=0.5;entryDx=0;entryDy=0;endArrow=none;endFill=0;" edge="1" parent="1" source="PJ_M52OKQND_QnQv1E5I-2" target="PJ_M52OKQND_QnQv1E5I-31">
          <mxGeometry relative="1" as="geometry" />
        </mxCell>
        <mxCell id="PJ_M52OKQND_QnQv1E5I-37" style="edgeStyle=orthogonalEdgeStyle;rounded=0;orthogonalLoop=1;jettySize=auto;html=1;exitX=0.5;exitY=1;exitDx=0;exitDy=0;endArrow=none;endFill=0;" edge="1" parent="1" source="PJ_M52OKQND_QnQv1E5I-2" target="PJ_M52OKQND_QnQv1E5I-32">
          <mxGeometry relative="1" as="geometry" />
        </mxCell>
        <mxCell id="PJ_M52OKQND_QnQv1E5I-2" value="商家管理" style="whiteSpace=wrap;html=1;fontSize=16;rounded=0;" vertex="1" parent="1">
          <mxGeometry x="251" y="178" width="120" height="40" as="geometry" />
        </mxCell>
        <mxCell id="PJ_M52OKQND_QnQv1E5I-24" style="edgeStyle=orthogonalEdgeStyle;rounded=0;orthogonalLoop=1;jettySize=auto;html=1;exitX=0.5;exitY=1;exitDx=0;exitDy=0;endArrow=none;endFill=0;" edge="1" parent="1" source="PJ_M52OKQND_QnQv1E5I-7" target="PJ_M52OKQND_QnQv1E5I-15">
          <mxGeometry relative="1" as="geometry" />
        </mxCell>
        <mxCell id="PJ_M52OKQND_QnQv1E5I-25" style="edgeStyle=orthogonalEdgeStyle;rounded=0;orthogonalLoop=1;jettySize=auto;html=1;exitX=0.5;exitY=1;exitDx=0;exitDy=0;endArrow=none;endFill=0;" edge="1" parent="1" source="PJ_M52OKQND_QnQv1E5I-7" target="PJ_M52OKQND_QnQv1E5I-19">
          <mxGeometry relative="1" as="geometry" />
        </mxCell>
        <mxCell id="PJ_M52OKQND_QnQv1E5I-26" style="edgeStyle=orthogonalEdgeStyle;rounded=0;orthogonalLoop=1;jettySize=auto;html=1;exitX=0.5;exitY=1;exitDx=0;exitDy=0;endArrow=none;endFill=0;" edge="1" parent="1" source="PJ_M52OKQND_QnQv1E5I-7">
          <mxGeometry relative="1" as="geometry">
            <mxPoint x="-13" y="293" as="targetPoint" />
          </mxGeometry>
        </mxCell>
        <mxCell id="PJ_M52OKQND_QnQv1E5I-27" style="edgeStyle=orthogonalEdgeStyle;rounded=0;orthogonalLoop=1;jettySize=auto;html=1;exitX=0.5;exitY=1;exitDx=0;exitDy=0;endArrow=none;endFill=0;" edge="1" parent="1" source="PJ_M52OKQND_QnQv1E5I-7" target="PJ_M52OKQND_QnQv1E5I-18">
          <mxGeometry relative="1" as="geometry" />
        </mxCell>
        <mxCell id="PJ_M52OKQND_QnQv1E5I-7" value="用户商品管理" style="whiteSpace=wrap;html=1;fontSize=16;rounded=0;" vertex="1" parent="1">
          <mxGeometry x="-124" y="178" width="160" height="40" as="geometry" />
        </mxCell>
        <mxCell id="PJ_M52OKQND_QnQv1E5I-40" style="edgeStyle=orthogonalEdgeStyle;rounded=0;orthogonalLoop=1;jettySize=auto;html=1;exitX=0.5;exitY=1;exitDx=0;exitDy=0;entryX=0;entryY=0.5;entryDx=0;entryDy=0;endArrow=none;endFill=0;" edge="1" parent="1" source="PJ_M52OKQND_QnQv1E5I-12" target="PJ_M52OKQND_QnQv1E5I-33">
          <mxGeometry relative="1" as="geometry" />
        </mxCell>
        <mxCell id="PJ_M52OKQND_QnQv1E5I-41" style="edgeStyle=orthogonalEdgeStyle;rounded=0;orthogonalLoop=1;jettySize=auto;html=1;exitX=0.5;exitY=1;exitDx=0;exitDy=0;entryX=0;entryY=0.5;entryDx=0;entryDy=0;endArrow=none;endFill=0;" edge="1" parent="1" source="PJ_M52OKQND_QnQv1E5I-12" target="PJ_M52OKQND_QnQv1E5I-30">
          <mxGeometry relative="1" as="geometry" />
        </mxCell>
        <mxCell id="PJ_M52OKQND_QnQv1E5I-46" style="edgeStyle=orthogonalEdgeStyle;rounded=0;orthogonalLoop=1;jettySize=auto;html=1;exitX=0.5;exitY=1;exitDx=0;exitDy=0;entryX=0;entryY=0.5;entryDx=0;entryDy=0;endArrow=none;endFill=0;" edge="1" parent="1" source="PJ_M52OKQND_QnQv1E5I-12" target="PJ_M52OKQND_QnQv1E5I-38">
          <mxGeometry relative="1" as="geometry" />
        </mxCell>
        <mxCell id="PJ_M52OKQND_QnQv1E5I-47" style="edgeStyle=orthogonalEdgeStyle;rounded=0;orthogonalLoop=1;jettySize=auto;html=1;exitX=0.5;exitY=1;exitDx=0;exitDy=0;entryX=0;entryY=0.5;entryDx=0;entryDy=0;endArrow=none;endFill=0;" edge="1" parent="1" source="PJ_M52OKQND_QnQv1E5I-12" target="PJ_M52OKQND_QnQv1E5I-39">
          <mxGeometry relative="1" as="geometry">
            <Array as="points">
              <mxPoint x="646" y="256" />
              <mxPoint x="742" y="256" />
              <mxPoint x="742" y="293" />
            </Array>
          </mxGeometry>
        </mxCell>
        <mxCell id="PJ_M52OKQND_QnQv1E5I-12" value="系统管理" style="whiteSpace=wrap;html=1;fontSize=16;rounded=0;" vertex="1" parent="1">
          <mxGeometry x="586" y="178" width="120" height="40" as="geometry" />
        </mxCell>
        <mxCell id="PJ_M52OKQND_QnQv1E5I-15" value="用&lt;br&gt;户&lt;br&gt;中&lt;br&gt;心" style="rounded=0;whiteSpace=wrap;html=1;direction=south;verticalAlign=middle;" vertex="1" parent="1">
          <mxGeometry x="-155.5" y="293" width="40" height="90" as="geometry" />
        </mxCell>
        <mxCell id="PJ_M52OKQND_QnQv1E5I-17" value="会&lt;br&gt;员&lt;br&gt;优&lt;br&gt;惠" style="rounded=0;whiteSpace=wrap;html=1;direction=south;verticalAlign=middle;" vertex="1" parent="1">
          <mxGeometry x="-33.5" y="293" width="40" height="90" as="geometry" />
        </mxCell>
        <mxCell id="PJ_M52OKQND_QnQv1E5I-18" value="账&lt;br&gt;户&lt;br&gt;设&lt;br&gt;置" style="rounded=0;whiteSpace=wrap;html=1;direction=south;verticalAlign=middle;" vertex="1" parent="1">
          <mxGeometry x="27.5" y="293" width="40" height="90" as="geometry" />
        </mxCell>
        <mxCell id="PJ_M52OKQND_QnQv1E5I-19" value="商&lt;br&gt;品&lt;br&gt;信&lt;br&gt;息" style="rounded=0;whiteSpace=wrap;html=1;direction=south;verticalAlign=middle;" vertex="1" parent="1">
          <mxGeometry x="-94.5" y="293" width="40" height="90" as="geometry" />
        </mxCell>
        <mxCell id="PJ_M52OKQND_QnQv1E5I-28" value="商&lt;br&gt;家&lt;br&gt;信&lt;br&gt;息" style="rounded=0;whiteSpace=wrap;html=1;direction=south;verticalAlign=middle;" vertex="1" parent="1">
          <mxGeometry x="199.5" y="293" width="40" height="90" as="geometry" />
        </mxCell>
        <mxCell id="PJ_M52OKQND_QnQv1E5I-29" value="打&lt;br&gt;折&lt;br&gt;商&lt;br&gt;品&lt;br&gt;信&lt;br&gt;息&lt;br&gt;管&lt;br&gt;理" style="rounded=0;whiteSpace=wrap;html=1;direction=south;verticalAlign=middle;" vertex="1" parent="1">
          <mxGeometry x="260.5" y="293" width="40" height="140" as="geometry" />
        </mxCell>
        <mxCell id="PJ_M52OKQND_QnQv1E5I-30" value="物&lt;br&gt;流&lt;br&gt;管&lt;br&gt;理" style="rounded=0;whiteSpace=wrap;html=1;direction=south;verticalAlign=middle;" vertex="1" parent="1">
          <mxGeometry x="595.5" y="293" width="40" height="90" as="geometry" />
        </mxCell>
        <mxCell id="PJ_M52OKQND_QnQv1E5I-31" value="账&lt;br&gt;户&lt;br&gt;管&lt;br&gt;理" style="rounded=0;whiteSpace=wrap;html=1;direction=south;verticalAlign=middle;" vertex="1" parent="1">
          <mxGeometry x="321.5" y="293" width="40" height="90" as="geometry" />
        </mxCell>
        <mxCell id="PJ_M52OKQND_QnQv1E5I-32" value="订&lt;br&gt;单&lt;br&gt;管&lt;br&gt;理" style="rounded=0;whiteSpace=wrap;html=1;direction=south;verticalAlign=middle;" vertex="1" parent="1">
          <mxGeometry x="382.5" y="293" width="40" height="90" as="geometry" />
        </mxCell>
        <mxCell id="PJ_M52OKQND_QnQv1E5I-33" value="商&lt;br&gt;品&lt;br&gt;分&lt;br&gt;类&lt;br&gt;管&lt;br&gt;理" style="rounded=0;whiteSpace=wrap;html=1;direction=south;verticalAlign=middle;" vertex="1" parent="1">
          <mxGeometry x="534.5" y="293" width="40" height="120" as="geometry" />
        </mxCell>
        <mxCell id="PJ_M52OKQND_QnQv1E5I-38" value="报&lt;br&gt;表&lt;br&gt;管&lt;br&gt;理" style="rounded=0;whiteSpace=wrap;html=1;direction=south;verticalAlign=middle;" vertex="1" parent="1">
          <mxGeometry x="657" y="293" width="40" height="90" as="geometry" />
        </mxCell>
        <mxCell id="PJ_M52OKQND_QnQv1E5I-39" value="客&lt;br&gt;服&lt;br&gt;中&lt;br&gt;心" style="rounded=0;whiteSpace=wrap;html=1;direction=south;verticalAlign=middle;" vertex="1" parent="1">
          <mxGeometry x="719" y="293" width="40" height="90" as="geometry" />
        </mxCell>
      </root>
    </mxGraphModel>
  </diagram>
</mxfile>
